# xmcd CD database file
# Copyright (C) 1997 Ti Kan
# 
# Track frame offsets:
#     150
#     17760
#     33480
#     52637
#     68757
#     87770
#     106460
#     125117
#     144810
#     166642
#     177560
#     191812
#     211622
#     230660
#     250447
# 
# Disc length: 3625 seconds
# 
# Revision: 1
# Processed by: cddbd v1.4b41PL1 Copyright (c) Steve Scherf et al.
# Submitted via: DiscPlay 4.0.4
# 
DISCID=c70e270f
DTITLE=Linda Ronstadt - 'Round Midnight: Disc 1
DYEAR=1900
DGENRE=
TTITLE0=What's New
TTITLE1=I've Got a Crush on You
TTITLE2=Guess I'll Hang My Tears Out to Dry
TTITLE3=Crazy He Calls Me
TTITLE4=Someone To Watch Over Me
TTITLE5=I Don't Stand a Ghost of a Chance
TTITLE6=What'll I Do
TTITLE7=Lover Man (Oh Where Can You Be)
TTITLE8=Good-Bye
TTITLE9=When I Fall in Love
TTITLE10=Skylark
TTITLE11=It Never Entered My Mind
TTITLE12=Mean To Me
TTITLE13=When You Lover Has Gone
TTITLE14=I'm a Fool to Want You
EXTD=
EXTT0=
EXTT1=
EXTT2=
EXTT3=
EXTT4=
EXTT5=
EXTT6=
EXTT7=
EXTT8=
EXTT9=
EXTT10=
EXTT11=
EXTT12=
EXTT13=
EXTT14=
PLAYORDER=
